<svg width="45" height="45" viewBox="0 0 45 45" fill="none" xmlns="http://www.w3.org/2000/svg">
<path d="M44.5518 13.5001C44.5518 13.5001 44.1123 10.3976 42.7588 9.03525C41.0449 7.24228 39.1289 7.23349 38.25 7.12802C31.957 6.67099 22.5088 6.67099 22.5088 6.67099H22.4912C22.4912 6.67099 13.043 6.67099 6.75 7.12802C5.87109 7.23349 3.95508 7.24228 2.24121 9.03525C0.887695 10.3976 0.457031 13.5001 0.457031 13.5001C0.457031 13.5001 0 17.1476 0 20.7862V24.1964C0 27.8351 0.448242 31.4825 0.448242 31.4825C0.448242 31.4825 0.887695 34.5851 2.23242 35.9474C3.94629 37.7403 6.19629 37.6788 7.19824 37.8722C10.8018 38.2149 22.5 38.3204 22.5 38.3204C22.5 38.3204 31.957 38.3028 38.25 37.8546C39.1289 37.7491 41.0449 37.7403 42.7588 35.9474C44.1123 34.5851 44.5518 31.4825 44.5518 31.4825C44.5518 31.4825 45 27.8438 45 24.1964V20.7862C45 17.1476 44.5518 13.5001 44.5518 13.5001ZM17.8506 28.336V15.6886L30.0059 22.0343L17.8506 28.336Z" fill="white"/>
</svg>
