<svg width="60" height="60" viewBox="0 0 60 60" fill="none" xmlns="http://www.w3.org/2000/svg">
<path d="M7.52499 28.05V39.275C7.52499 50.5 12.025 55 23.25 55H36.725C47.95 55 52.45 50.5 52.45 39.275V28.05" stroke="white" stroke-width="1.5" stroke-linecap="round" stroke-linejoin="round"/>
<path d="M30 30C34.575 30 37.95 26.275 37.5 21.7L35.85 5H24.175L22.5 21.7C22.05 26.275 25.425 30 30 30Z" stroke="white" stroke-width="1.5" stroke-linecap="round" stroke-linejoin="round"/>
<path d="M45.775 30C50.825 30 54.525 25.9 54.025 20.875L53.325 14C52.425 7.5 49.925 5 43.375 5H35.75L37.5 22.525C37.925 26.65 41.65 30 45.775 30Z" stroke="white" stroke-width="1.5" stroke-linecap="round" stroke-linejoin="round"/>
<path d="M14.1 30C18.225 30 21.95 26.65 22.35 22.525L22.9 17L24.1 5H16.475C9.92501 5 7.42501 7.5 6.52501 14L5.85001 20.875C5.35001 25.9 9.05001 30 14.1 30Z" stroke="white" stroke-width="1.5" stroke-linecap="round" stroke-linejoin="round"/>
<path d="M30 42.5C25.825 42.5 23.75 44.575 23.75 48.75V55H36.25V48.75C36.25 44.575 34.175 42.5 30 42.5Z" stroke="white" stroke-width="1.5" stroke-linecap="round" stroke-linejoin="round"/>
</svg>
